inDegrees=no
num_controls=7
num_derivatives=13
num_iterations=109
num_multipliers=7
num_parameters=0
num_slacks=7
num_states=26
objective=0.445721
objective_accelerations=0.056432
objective_balance=0.003395
objective_effort=0.022645
objective_height=0.357677
objective_ligament=0.005572
solver_duration=1505.516965
status=Solve_Succeeded
success=true
DataType=double
version=3
OpenSimVersion=4.5
endheader
time	/jointset/ground_pelvis/pelvis_tilt/value	/jointset/ground_pelvis/pelvis_tx/value	/jointset/ground_pelvis/pelvis_ty/value	/jointset/hip_l/hip_flexion_l/value	/jointset/hip_l/hip_adduction_l/value	/jointset/hip_l/hip_rotation_l/value	/jointset/back/lumbar_extension/value	/jointset/patellofemoral_l/patellar_flexion_l/value	/jointset/knee_l/knee_flexion_l/value	/jointset/knee_l/knee_adduction_l/value	/jointset/knee_l/knee_rotation_l/value	/jointset/ankle_l/ankle_angle_l/value	/jointset/subtalar_l/subtalar_angle_l/value	/jointset/ground_pelvis/pelvis_tilt/speed	/jointset/ground_pelvis/pelvis_tx/speed	/jointset/ground_pelvis/pelvis_ty/speed	/jointset/hip_l/hip_flexion_l/speed	/jointset/hip_l/hip_adduction_l/speed	/jointset/hip_l/hip_rotation_l/speed	/jointset/back/lumbar_extension/speed	/jointset/patellofemoral_l/patellar_flexion_l/speed	/jointset/knee_l/knee_flexion_l/speed	/jointset/knee_l/knee_adduction_l/speed	/jointset/knee_l/knee_rotation_l/speed	/jointset/ankle_l/ankle_angle_l/speed	/jointset/subtalar_l/subtalar_angle_l/speed	/forceset/tau_hip_flexion_l	/forceset/tau_hip_adduction_l	/forceset/tau_hip_rotation_l	/forceset/tau_knee_flexion_l	/forceset/tau_ankle_angle_l	/forceset/tau_subtalar_angle_l	/forceset/tau_lumbar_extension	lambda_cid13_p0	lambda_cid13_p1	lambda_cid13_p2	lambda_cid13_p3	lambda_cid13_p4	lambda_cid13_p5	lambda_cid14_p0	/jointset/ground_pelvis/pelvis_tilt/accel	/jointset/ground_pelvis/pelvis_tx/accel	/jointset/ground_pelvis/pelvis_ty/accel	/jointset/hip_l/hip_flexion_l/accel	/jointset/hip_l/hip_adduction_l/accel	/jointset/hip_l/hip_rotation_l/accel	/jointset/back/lumbar_extension/accel	/jointset/patellofemoral_l/patellar_flexion_l/accel	/jointset/knee_l/knee_flexion_l/accel	/jointset/knee_l/knee_adduction_l/accel	/jointset/knee_l/knee_rotation_l/accel	/jointset/ankle_l/ankle_angle_l/accel	/jointset/subtalar_l/subtalar_angle_l/accel	gamma_cid13_p0	gamma_cid13_p1	gamma_cid13_p2	gamma_cid13_p3	gamma_cid13_p4	gamma_cid13_p5	gamma_cid14_p0
0.5	-0.3382043202890438	-0.03569595990830804	0.7622130876109389	1.088021904447627	-0.4379624841641187	-0.2228387119003664	-0.2538153631839706	0.8001150537347735	0.8001150537347395	-0.1336685606722476	-0.1582876555032855	0.1085083398042587	-0.03353566878449706	-0.7660654527273355	-0.2121223024900453	-0.5223046334224128	2.448957903679148	-0.2094883988820299	0.7497596506774038	-0.1197791938112965	1.971032611082346	1.971032611082652	0.1127058899611426	-0.08883478920300593	0.4570160403389746	-0.006687103020215125	-0.1691458649869051	0.02588781374648562	-0.01052792117445363	-0.2148381430303829	0.06296470326435198	0.04056708961990817	0.1672135902853236	-12.62806748522528	-18.51303471027812	6.163172614491943	-5.462243065155089	-522.4997313002773	-59.62478253503753	-25.48128504454853	0.7779762156347192	0.5767574214026805	-0.4537162747272575	-1.317408520199365	0.7419059830921996	-0.1749208747923546	1.066632659280585	-1.251947202325439	-1.2519472023255	0.07284534723551804	0.174467890334312	-0.5035526424627459	0.5444835388681525	-5.528175090521685e-07	-5.485161447748747e-07	2.648498548721041e-06	1.12267340059243e-07	-6.275038113203875e-07	-2.681361533587477e-08	-4.584672855091259e-07
0.51	-0.3458242363813474	-0.0377880643173084	0.7569685245399033	1.112440735868451	-0.4400213770945351	-0.2153490353555833	-0.2549609368211203	0.8197596096298219	0.8197596096301143	-0.1325419177777432	-0.1591669892767511	0.1130521073205243	-0.03357718611567415	-0.7578103435058341	-0.2062781651316875	-0.5264939614038491	2.434466890935188	-0.2022713121388759	0.748056870639258	-0.1093683906814902	1.957607294035008	1.957607294035092	0.1126317885545497	-0.08703178573583548	0.4516636597671255	-0.001623687617032355	-0.174588435346164	0.02680389885510472	-0.01065387601042261	-0.2175712526563846	0.06255446861478037	0.04084820261897953	0.1713835964274235	-12.95989073459329	-18.55123307066684	6.139804173677846	-5.420342053044821	-526.1075912253834	-59.14628404573912	-24.57806566787599	0.8653267560451291	0.5913302088862705	-0.3845603001083239	-1.566247523971733	0.714150938451108	-0.1861622172641401	1.023375580410327	-1.428425117621752	-1.428425117655118	-0.04614488038095884	0.1837830128831137	-0.5621501403783135	0.4859337561598229	-5.281618855858738e-07	-4.364923435346883e-07	2.629329582105006e-06	1.307344629282287e-07	-5.919453699805624e-07	4.256646216212471e-08	-4.411699339294372e-07
0.52	-0.353358391685309	-0.0398211096895584	0.751685464341002	1.136704397187341	-0.4420075909738143	-0.2078800277409698	-0.2560033881388554	0.8392617921220568	0.8392617921226785	-0.1314157372964532	-0.1600281797279599	0.1175401371559048	-0.03356833664979611	-0.7489132950588385	-0.200310495139972	-0.5300040589955444	2.417923883292135	-0.1949525886547579	0.7456258646435739	-0.09915472992849517	1.942557930520315	1.942557930520177	0.1126134073169863	-0.0852061247496759	0.4458685041619837	0.003386256390810166	-0.1800310057054087	0.02771998396372564	-0.01077983084631366	-0.2203043622823918	0.06214423396520734	0.04112931561805136	0.1755536025695366	-13.29500927117685	-18.58975945204123	6.117523501801462	-5.412288200560582	-529.793149490369	-58.72668927904528	-23.67609389569233	0.906364060733586	0.6014639480741939	-0.3178701967790765	-1.727807500017859	0.762233331284997	-0.3205660662999536	1.027204183918325	-1.576756495796567	-1.576756495796565	0.08398938104142364	0.178999394132139	-0.5921076491212657	0.5337892598000977	-5.000496328654823e-07	-3.898852100090576e-07	2.536240802417134e-06	1.303079691029819e-07	-5.539788085228953e-07	1.012677662147141e-07	-4.24116454883717e-07
0.53	-0.3608004849237695	-0.04179394245961961	0.7463707117575588	1.160792688348609	-0.4439201126892073	-0.2004387144751006	-0.256944726519367	0.8586056187589949	0.8586056187591762	-0.1302894367390616	-0.1608708726287782	0.1219681225894129	-0.03350960148949695	-0.7393981065700822	-0.1942429131470325	-0.5328297114259041	2.399399903644908	-0.1875436693654983	0.7425455866227639	-0.0891618660791669	1.925950645628379	1.925950645628405	0.1126313677630421	-0.08331711624902323	0.4396606809829661	0.008343906641910943	-0.18544371697691	0.02827811399107344	-0.01084254905190809	-0.2229415376602672	0.06144112115062272	0.0414820407657268	0.1796530918373684	-13.72195546543069	-18.64287445012801	6.09707107735449	-5.270439168565198	-533.4355482674503	-58.41795523645848	-22.77673631849632	0.9901229594916927	0.6114032004520668	-0.2475076334439194	-1.964930488743456	0.7311548017122439	-0.3157897259581708	0.977989499645209	-1.741144139890824	-1.741144139866225	-0.04157721262599424	0.1966563417507047	-0.6452996476055817	0.4739909773138726	-4.782187836555719e-07	-3.170257211742635e-07	2.502743201414043e-06	1.439342162440971e-07	-5.271853436147672e-07	1.639675429237918e-07	-4.09994019773112e-07
0.54	-0.3681442209340341	-0.04370569983464179	0.741031183676356	1.184685692255072	-0.4457583584969138	-0.1930310102006353	-0.2577876038585436	0.8777756866162126	0.8777756866159564	-0.1291634118950118	-0.1616941144918487	0.1263319937920686	-0.033401842212777	-0.7292418494195223	-0.1880954161321645	-0.534959158547441	2.378866432330948	-0.1800974071176084	0.7389040663624886	-0.07946252166163148	1.907806174576494	1.907806174576684	0.1125582646485528	-0.08131591719961496	0.4330456579914052	0.01319107967496457	-0.1908564282483846	0.02883624401843092	-0.01090526725749885	-0.2255787130381415	0.06073800833603892	0.0418347659134141	0.1837525811052226	-14.15303118464494	-18.6962057221727	6.07772759693313	-5.156724399214355	-537.1659459401835	-58.16684005543973	-21.88193087066279	1.034577793094346	0.6174469524599171	-0.1786291350145304	-2.129705833364528	0.7697019230110795	-0.4328145141930315	0.9685002975597689	-1.884193727786367	-1.884193727786317	0.06577666893237995	0.2014375038832554	-0.6735476116299599	0.5116938161906637	-4.633375723721515e-07	-2.151210732740115e-07	2.535176266189859e-06	1.731081767948045e-07	-5.127536025486827e-07	2.310911617208992e-07	-3.991144417822089e-07
